<svg width="12" height="13" viewBox="0 0 12 13" fill="none" xmlns="http://www.w3.org/2000/svg">
<path d="M6 0.5C8.39664 0.5 9.59486 0.500246 10.458 1.07129C10.8435 1.32633 11.1737 1.65655 11.4287 2.04199C11.9998 2.90514 12 4.10336 12 6.5C12 8.89664 11.9998 10.0949 11.4287 10.958C11.1737 11.3435 10.8435 11.6737 10.458 11.9287C9.59486 12.4998 8.39664 12.5 6 12.5C3.60336 12.5 2.40514 12.4998 1.54199 11.9287C1.15655 11.6737 0.826325 11.3435 0.571289 10.958C0.000245758 10.0949 0 8.89664 0 6.5C0 4.10336 0.000245908 2.90514 0.571289 2.04199C0.826325 1.65655 1.15655 1.32633 1.54199 1.07129C2.40514 0.500246 3.60336 0.5 6 0.5ZM6 3.39355C4.2845 3.39355 2.89364 4.78452 2.89355 6.5C2.89355 8.21555 4.28445 9.60645 6 9.60645C7.7155 9.60639 9.10645 8.21551 9.10645 6.5C9.10636 4.78456 7.71545 3.39361 6 3.39355ZM6 4.44434C7.13503 4.44439 8.05558 5.36497 8.05566 6.5C8.05566 7.6351 7.13508 8.55561 6 8.55566C4.86487 8.55566 3.94434 7.63513 3.94434 6.5C3.94442 5.36494 4.86492 4.44434 6 4.44434ZM9.22852 2.50781C8.82557 2.50799 8.49902 2.83529 8.49902 3.23828C8.49927 3.64106 8.82572 3.96759 9.22852 3.96777C9.63146 3.96777 9.95873 3.64117 9.95898 3.23828C9.95898 2.83518 9.63162 2.50781 9.22852 2.50781Z" fill="white"/>
</svg>
