<svg width="2158" height="1024" viewBox="0 0 2158 1024" fill="none" xmlns="http://www.w3.org/2000/svg">
<path d="M224.72 612.82H172.1L181.84 559.66H234.47L224.72 612.82Z" fill="#8366F7"/>
<path d="M239.41 533.3H186.78L220.77 348.87H273.4L239.41 533.3Z" fill="#8366F7"/>
<path d="M91.2 449.631C104.74 449.631 117.64 453.181 129.93 460.261C142.22 467.341 152.11 477.251 159.6 489.971C167.09 502.691 170.85 517.081 170.85 533.131C170.85 549.181 167.1 563.26 159.6 575.98C152.11 588.7 142.21 598.601 129.93 605.691C117.65 612.781 104.74 616.321 91.2 616.321C80.37 616.321 70.9 614.861 62.78 611.941C54.87 608.821 47.79 604.121 41.54 597.861V675.111H0V453.381H39.98V469.641C46.44 462.761 53.83 457.761 62.16 454.631C70.49 451.301 80.17 449.631 91.2 449.631ZM84.64 577.861C97.34 577.861 107.96 573.59 116.5 565.04C125.04 556.49 129.3 545.861 129.3 533.141C129.3 520.421 125.03 509.471 116.5 500.931C107.96 492.381 97.34 488.111 84.64 488.111C71.94 488.111 61.32 492.381 52.78 500.931C44.24 509.481 39.98 520.221 39.98 533.141C39.98 546.071 44.25 556.49 52.78 565.04C61.32 573.58 71.94 577.861 84.64 577.861ZM384.48 453.381H424.45V612.571H384.48V596.311C378.02 603.191 370.63 608.301 362.3 611.631C353.97 614.761 344.29 616.321 333.26 616.321C319.72 616.321 306.82 612.771 294.53 605.691C282.24 598.601 272.35 588.7 264.86 575.98C257.37 563.26 253.61 548.981 253.61 533.131C253.61 517.281 257.36 502.691 264.86 489.971C272.35 477.251 282.25 467.351 294.53 460.261C306.81 453.171 319.72 449.631 333.26 449.631C344.3 449.631 353.98 451.301 362.3 454.641C370.63 457.761 378.02 462.771 384.48 469.651V453.381ZM339.82 577.861C352.52 577.861 363.14 573.59 371.68 565.04C380.22 556.49 384.49 545.861 384.49 533.141C384.49 520.421 380.22 509.471 371.68 500.931C363.14 492.381 352.52 488.111 339.82 488.111C327.12 488.111 316.5 492.381 307.96 500.931C299.42 509.481 295.16 520.221 295.16 533.141C295.16 546.071 299.43 556.49 307.96 565.04C316.49 573.58 327.11 577.861 339.82 577.861ZM519.55 550.961L562.03 453.381H606.39L507.38 675.121H464.27L498.63 598.181L430.23 453.381H475.52L519.55 550.961ZM744.93 577.861C757.63 577.861 768.26 573.59 776.79 565.04C785.33 556.49 789.6 545.861 789.6 533.141C789.6 520.421 785.33 509.471 776.79 500.931C768.25 492.381 757.63 488.111 744.93 488.111C732.23 488.111 721.61 492.381 713.07 500.931C704.53 509.481 700.27 520.221 700.27 533.141C700.27 546.071 704.54 556.49 713.07 565.04C721.61 573.58 732.23 577.861 744.93 577.861ZM1140.66 483.401C1130.25 483.401 1121.5 486.321 1114.42 492.161C1107.55 497.791 1102.87 505.821 1100.37 516.241H1181.26C1179.18 506.441 1174.7 498.521 1167.83 492.471C1161.16 486.431 1152.11 483.401 1140.66 483.401ZM1666.01 577.861C1678.71 577.861 1689.33 573.59 1697.87 565.04C1706.41 556.49 1710.68 545.861 1710.68 533.141C1710.68 520.421 1706.41 509.471 1697.87 500.931C1689.33 492.381 1678.71 488.111 1666.01 488.111C1653.31 488.111 1642.69 492.381 1634.15 500.931C1625.61 509.481 1621.35 520.221 1621.35 533.141C1621.35 546.071 1625.62 556.49 1634.15 565.04C1642.69 573.58 1653.31 577.861 1666.01 577.861ZM789.59 453.381H829.57V612.571H789.59V596.311C783.13 603.191 775.74 608.301 767.41 611.631C759.08 614.761 749.4 616.321 738.37 616.321C724.83 616.321 711.93 612.771 699.64 605.691C687.35 598.601 677.46 588.7 669.97 575.98C662.48 563.26 658.73 548.981 658.73 533.131C658.73 517.281 662.48 502.691 669.97 489.971C677.46 477.251 687.36 467.351 699.64 460.261C711.93 453.171 724.83 449.631 738.37 449.631C749.41 449.631 759.09 451.301 767.41 454.641C775.74 457.761 783.13 462.771 789.59 469.651V453.381ZM1052.72 491.851H1014.61V549.391C1014.61 557.101 1016.79 563.151 1021.17 567.531C1025.54 571.911 1031.58 574.1 1039.29 574.1H1052.72V612.571H1028.67C1011.39 612.571 997.75 607.671 987.75 597.871C977.96 587.861 973.07 574.311 973.07 557.211V491.851H909.04V549.391C909.04 557.101 911.23 563.151 915.6 567.531C919.97 571.911 926.01 574.1 933.72 574.1H947.15V612.571H923.1C905.82 612.571 892.18 607.671 882.18 597.871C872.39 587.861 867.5 574.311 867.5 557.211V491.851H841.57V453.381H867.5V411.161H909.04V453.381H973.07V411.161H1014.61V453.381H1052.72V491.851ZM1140.66 449.631C1155.24 449.631 1168.87 453.181 1181.58 460.261C1194.49 467.351 1204.69 477.041 1212.19 489.341C1219.9 501.641 1223.75 515.401 1223.75 530.621C1223.75 536.251 1223.12 542.191 1221.87 548.451H1100.06C1102.35 559.291 1107.03 567.741 1114.12 573.781C1121.2 579.621 1130.15 582.54 1140.98 582.54C1149.31 582.54 1156.28 581.08 1161.9 578.16C1167.73 575.04 1172.52 570.451 1176.27 564.401H1218.12C1212.08 579.621 1202.4 592.131 1189.08 601.931C1175.76 611.521 1159.62 616.321 1140.67 616.321C1126.09 616.321 1112.35 612.881 1099.44 606.001C1086.53 598.911 1076.22 589.11 1068.51 576.6C1060.81 563.88 1056.96 549.391 1056.96 533.131C1056.96 516.861 1060.81 502.381 1068.51 489.661C1076.22 476.941 1086.42 467.141 1099.12 460.261C1112.03 453.171 1125.88 449.631 1140.66 449.631ZM1326.69 449.631C1339.18 449.631 1350.32 452.651 1360.11 458.701C1369.9 464.541 1377.5 472.671 1382.91 483.091C1388.53 493.511 1391.34 505.191 1391.34 518.121V612.571H1349.8V525.941C1349.8 514.471 1346.78 505.301 1340.74 498.421C1334.91 491.541 1326.79 488.101 1316.38 488.101C1305.97 488.101 1297.74 491.651 1291.08 498.731C1284.42 505.611 1281.09 514.681 1281.09 525.941V612.571H1239.55V453.381H1279.53V469.641C1292.66 456.301 1308.38 449.631 1326.69 449.631ZM1504.23 491.851H1466.12V549.391C1466.12 557.101 1468.3 563.151 1472.68 567.531C1477.05 571.911 1483.09 574.1 1490.79 574.1H1504.22V612.571H1480.17C1462.89 612.571 1449.25 607.671 1439.25 597.871C1429.46 587.861 1424.57 574.311 1424.57 557.211V491.851H1398.65V453.381H1424.57V411.161H1466.11V453.381H1504.22V491.851H1504.23ZM1564.02 612.571H1522.48V453.381H1564.02V612.571ZM1564.96 426.801H1520.92V389.271H1564.96V426.801ZM1666.02 616.331C1650.82 616.331 1636.56 612.891 1623.23 606.011C1610.11 598.921 1599.6 589.121 1591.69 576.611C1583.77 563.891 1579.82 549.401 1579.82 533.141C1579.82 516.871 1583.77 502.391 1591.69 489.671C1599.6 476.951 1610.11 467.151 1623.23 460.271C1636.56 453.181 1650.82 449.641 1666.02 449.641C1681.22 449.641 1695.38 453.191 1708.5 460.271C1721.83 467.151 1732.45 476.951 1740.36 489.671C1748.27 502.391 1752.23 516.881 1752.23 533.141C1752.23 549.411 1748.27 563.891 1740.36 576.611C1732.44 589.121 1721.82 598.921 1708.5 606.011C1695.38 612.891 1681.22 616.331 1666.02 616.331ZM1855.35 449.641C1867.84 449.641 1878.98 452.661 1888.77 458.711C1898.56 464.551 1906.16 472.681 1911.57 483.101C1917.19 493.521 1920 505.201 1920 518.131V612.581H1878.46V525.951C1878.46 514.481 1875.44 505.311 1869.4 498.431C1863.57 491.551 1855.45 488.111 1845.04 488.111C1834.63 488.111 1826.41 491.661 1819.74 498.741C1813.08 505.621 1809.75 514.691 1809.75 525.951V612.581H1768.21V453.381H1808.18V469.641C1821.3 456.301 1837.02 449.631 1855.35 449.641Z" fill="white"/>
<path fill-rule="evenodd" clip-rule="evenodd" d="M2032.19 641.026C2025.09 645.354 2024.24 655.014 2030.45 660.75C2033.51 663.578 2034.67 664 2039.35 664C2045.35 664 2048.96 661.914 2051.52 656.961C2053.53 653.065 2053.37 649.123 2051.04 645.299C2047.26 639.098 2038.58 637.13 2032.19 641.026ZM1816 667.077V688.154L1812.92 685.07C1808.43 680.583 1802.34 677.304 1794.97 675.406C1789.53 674.002 1787.35 673.915 1781.24 674.857C1760.47 678.06 1747 695.254 1747 718.556C1747 733.774 1750.77 744.539 1759.08 753.081C1766.98 761.2 1769.52 762 1787.32 762C1802.2 762 1802.85 761.912 1806.61 759.424C1808.75 758.007 1811.72 755.419 1813.22 753.674L1815.95 750.5L1815.97 756.25L1816 762H1827H1838V704V646H1827H1816V667.077ZM1670.65 675.049C1649.3 678.631 1635.25 701.751 1638.87 727.332C1640.82 741.178 1647.69 752.636 1657.95 759.168C1662.35 761.976 1662.53 762 1678.47 762C1696.28 762 1695.95 762.097 1703.75 754.644L1708 750.584V756.292V762H1719H1730V719V676H1719H1708V682.085V688.17L1703.41 684.132C1697.77 679.169 1692.1 676.346 1685.08 675.015C1679.1 673.88 1677.59 673.884 1670.65 675.049ZM1896.32 676.583C1894.03 677.427 1890.13 679.891 1887.67 682.059C1885.21 684.226 1882.92 686 1882.6 686C1882.27 686 1882 683.75 1882 681V676H1871.5H1861V719V762H1871.41H1881.83L1882.16 735.25C1882.49 709.043 1882.55 708.399 1885 703.5C1890.51 692.487 1906.85 689.664 1916.43 698.072C1922.36 703.276 1923 707.01 1923 736.178V762H1934H1945V734.657C1945 707.99 1945.06 707.206 1947.32 702.907C1952.84 692.414 1969.14 689.92 1978.5 698.136C1984.27 703.196 1985 707.553 1985 736.682V762H1995.55H2006.1L2005.8 730.75L2005.5 699.5L2002.89 693.933C1999.8 687.338 1994.39 681.794 1987.5 678.146C1982.93 675.728 1981.51 675.5 1971 675.5C1960.12 675.5 1959.21 675.661 1954.15 678.462C1951.21 680.092 1946.78 683.674 1944.31 686.423C1940.49 690.672 1939.68 691.173 1938.89 689.764C1936.56 685.6 1932.61 682.069 1926.8 678.951C1921 675.839 1919.7 675.548 1910.5 675.309C1903.43 675.125 1899.27 675.499 1896.32 676.583ZM2108.7 676.915C2106.05 677.978 2101.89 680.487 2099.45 682.491L2095 686.134V681.067V676H2084H2073V719V762H2084H2095V734.968C2095 706.638 2095.4 703.584 2099.79 698.645C2104.85 692.944 2117.18 691.287 2125.04 695.25C2128.53 697.012 2130.1 698.678 2132.25 702.929L2135 708.359V735.179V762H2146.09H2157.18L2156.79 731.75C2156.42 703.295 2156.27 701.165 2154.17 695.853C2151.31 688.637 2145.65 682.224 2138.85 678.498C2134.1 675.893 2132.38 675.53 2123.5 675.273C2115.46 675.039 2112.56 675.361 2108.7 676.915ZM2029 719V762H2039.5H2050V719V676H2039.5H2029V719ZM1694.14 695.528C1705.48 701.248 1710.76 715.506 1706.63 729.239C1702.83 741.851 1690.04 748.64 1676.93 744.998C1669.02 742.8 1662.25 733.866 1660.54 723.355C1659.05 714.228 1663.3 702.8 1670.06 697.792C1676.69 692.879 1686.97 691.912 1694.14 695.528ZM1803.64 696.069C1811.73 699.984 1815.88 707.846 1815.96 719.384C1816.02 729.007 1814.37 733.682 1809.02 739.051C1803.74 744.355 1797.65 746.509 1790.01 745.775C1777.96 744.617 1769 733.669 1769 720.091C1769 711.215 1771.16 705.243 1776.22 700.135C1783.36 692.923 1793.91 691.358 1803.64 696.069Z" fill="#8365F7"/>
</svg>
