<?xml version="1.0" encoding="utf-8"?>
<!-- Generator: Adobe Illustrator 27.8.0, SVG Export Plug-In . SVG Version: 6.00 Build 0)  -->
<svg version="1.1" id="Layer_1" xmlns="http://www.w3.org/2000/svg" xmlns:xlink="http://www.w3.org/1999/xlink" x="0px" y="0px"
	 viewBox="0 0 1920 1024" style="enable-background:new 0 0 1920 1024;" xml:space="preserve">
<style type="text/css">
	.st0{fill:#8366F7;}
	.st1{fill:#FFFFFF;}
</style>
<g>
	<path class="st0" d="M224.72,612.82H172.1l9.74-53.16h52.63L224.72,612.82z"/>
	<path class="st0" d="M239.41,533.3h-52.63l33.99-184.43h52.63L239.41,533.3z"/>
	<path class="st1" d="M91.2,449.63c13.54,0,26.44,3.55,38.73,10.63s22.18,16.99,29.67,29.71c7.49,12.72,11.25,27.11,11.25,43.16
		c0,16.05-3.75,30.13-11.25,42.85c-7.49,12.72-17.39,22.62-29.67,29.71s-25.19,10.63-38.73,10.63c-10.83,0-20.3-1.46-28.42-4.38
		c-7.91-3.12-14.99-7.82-21.24-14.08v77.25H0V453.38h39.98v16.26c6.46-6.88,13.85-11.88,22.18-15.01
		C70.49,451.3,80.17,449.63,91.2,449.63L91.2,449.63z M84.64,577.86c12.7,0,23.32-4.27,31.86-12.82c8.54-8.55,12.8-19.18,12.8-31.9
		c0-12.72-4.27-23.67-12.8-32.21c-8.54-8.55-19.16-12.82-31.86-12.82c-12.7,0-23.32,4.27-31.86,12.82
		c-8.54,8.55-12.8,19.29-12.8,32.21c0,12.93,4.27,23.35,12.8,31.9C61.32,573.58,71.94,577.86,84.64,577.86z M384.48,453.38h39.97
		v159.19h-39.97v-16.26c-6.46,6.88-13.85,11.99-22.18,15.32c-8.33,3.13-18.01,4.69-29.04,4.69c-13.54,0-26.44-3.55-38.73-10.63
		c-12.29-7.09-22.18-16.99-29.67-29.71c-7.49-12.72-11.25-27-11.25-42.85c0-15.85,3.75-30.44,11.25-43.16
		c7.49-12.72,17.39-22.62,29.67-29.71c12.28-7.09,25.19-10.63,38.73-10.63c11.04,0,20.72,1.67,29.04,5.01
		c8.33,3.12,15.72,8.13,22.18,15.01V453.38L384.48,453.38z M339.82,577.86c12.7,0,23.32-4.27,31.86-12.82
		c8.54-8.55,12.81-19.18,12.81-31.9c0-12.72-4.27-23.67-12.81-32.21c-8.54-8.55-19.16-12.82-31.86-12.82
		c-12.7,0-23.32,4.27-31.86,12.82c-8.54,8.55-12.8,19.29-12.8,32.21c0,12.93,4.27,23.35,12.8,31.9
		C316.49,573.58,327.11,577.86,339.82,577.86z M519.55,550.96l42.48-97.58h44.36l-99.01,221.74h-43.11l34.36-76.94l-68.4-144.8
		h45.29L519.55,550.96L519.55,550.96z M744.93,577.86c12.7,0,23.33-4.27,31.86-12.82c8.54-8.55,12.81-19.18,12.81-31.9
		c0-12.72-4.27-23.67-12.81-32.21c-8.54-8.55-19.16-12.82-31.86-12.82c-12.7,0-23.32,4.27-31.86,12.82
		c-8.54,8.55-12.8,19.29-12.8,32.21c0,12.93,4.27,23.35,12.8,31.9C721.61,573.58,732.23,577.86,744.93,577.86z M1140.66,483.4
		c-10.41,0-19.16,2.92-26.24,8.76c-6.87,5.63-11.55,13.66-14.05,24.08h80.89c-2.08-9.8-6.56-17.72-13.43-23.77
		C1161.16,486.43,1152.11,483.4,1140.66,483.4L1140.66,483.4z M1666.01,577.86c12.7,0,23.32-4.27,31.86-12.82
		c8.54-8.55,12.81-19.18,12.81-31.9c0-12.72-4.27-23.67-12.81-32.21c-8.54-8.55-19.16-12.82-31.86-12.82
		c-12.7,0-23.32,4.27-31.86,12.82c-8.54,8.55-12.8,19.29-12.8,32.21c0,12.93,4.27,23.35,12.8,31.9
		C1642.69,573.58,1653.31,577.86,1666.01,577.86z M789.59,453.38h39.98v159.19h-39.98v-16.26c-6.46,6.88-13.85,11.99-22.18,15.32
		c-8.33,3.13-18.01,4.69-29.04,4.69c-13.54,0-26.44-3.55-38.73-10.63c-12.29-7.09-22.18-16.99-29.67-29.71
		c-7.49-12.72-11.24-27-11.24-42.85c0-15.85,3.75-30.44,11.24-43.16c7.49-12.72,17.39-22.62,29.67-29.71
		c12.29-7.09,25.19-10.63,38.73-10.63c11.04,0,20.72,1.67,29.04,5.01c8.33,3.12,15.72,8.13,22.18,15.01V453.38L789.59,453.38z
		 M1052.72,491.85h-38.11v57.54c0,7.71,2.18,13.76,6.56,18.14c4.37,4.38,10.41,6.57,18.12,6.57h13.43v38.47h-24.05
		c-17.28,0-30.92-4.9-40.92-14.7c-9.79-10.01-14.68-23.56-14.68-40.66v-65.36h-64.03v57.54c0,7.71,2.19,13.76,6.56,18.14
		c4.37,4.38,10.41,6.57,18.12,6.57h13.43v38.47H923.1c-17.28,0-30.92-4.9-40.92-14.7c-9.79-10.01-14.68-23.56-14.68-40.66v-65.36
		h-25.93v-38.47h25.93v-42.22h41.54v42.22h64.03v-42.22h41.54v42.22h38.11V491.85z M1140.66,449.63c14.58,0,28.21,3.55,40.92,10.63
		c12.91,7.09,23.11,16.78,30.61,29.08c7.71,12.3,11.56,26.06,11.56,41.28c0,5.63-0.63,11.57-1.88,17.83h-121.81
		c2.29,10.84,6.97,19.29,14.06,25.33c7.08,5.84,16.03,8.76,26.86,8.76c8.33,0,15.3-1.46,20.92-4.38
		c5.83-3.12,10.62-7.71,14.37-13.76h41.85c-6.04,15.22-15.72,27.73-29.04,37.53c-13.32,9.59-29.46,14.39-48.41,14.39
		c-14.58,0-28.32-3.44-41.23-10.32c-12.91-7.09-23.22-16.89-30.93-29.4c-7.7-12.72-11.55-27.21-11.55-43.47
		c0-16.27,3.85-30.75,11.55-43.47c7.71-12.72,17.91-22.52,30.61-29.4c12.91-7.09,26.76-10.63,41.54-10.63L1140.66,449.63z
		 M1326.69,449.63c12.49,0,23.63,3.02,33.42,9.07c9.79,5.84,17.39,13.97,22.8,24.39c5.62,10.42,8.43,22.1,8.43,35.03v94.45h-41.54
		v-86.63c0-11.47-3.02-20.64-9.06-27.52c-5.83-6.88-13.95-10.32-24.36-10.32c-10.41,0-18.64,3.55-25.3,10.63
		c-6.66,6.88-9.99,15.95-9.99,27.21v86.63h-41.54V453.38h39.98v16.26C1292.66,456.3,1308.38,449.63,1326.69,449.63L1326.69,449.63z
		 M1504.23,491.85h-38.11v57.54c0,7.71,2.18,13.76,6.56,18.14c4.37,4.38,10.41,6.57,18.11,6.57h13.43v38.47h-24.05
		c-17.28,0-30.92-4.9-40.92-14.7c-9.79-10.01-14.68-23.56-14.68-40.66v-65.36h-25.92v-38.47h25.92v-42.22h41.54v42.22h38.11V491.85z
		 M1564.02,612.57h-41.54V453.38h41.54V612.57z M1564.96,426.8h-44.04v-37.53h44.04V426.8z M1666.02,616.33
		c-15.2,0-29.46-3.44-42.79-10.32c-13.12-7.09-23.63-16.89-31.54-29.4c-7.92-12.72-11.87-27.21-11.87-43.47
		c0-16.27,3.95-30.75,11.87-43.47c7.91-12.72,18.42-22.52,31.54-29.4c13.33-7.09,27.59-10.63,42.79-10.63
		c15.2,0,29.36,3.55,42.48,10.63c13.33,6.88,23.95,16.68,31.86,29.4c7.91,12.72,11.87,27.21,11.87,43.47
		c0,16.27-3.96,30.75-11.87,43.47c-7.92,12.51-18.54,22.31-31.86,29.4C1695.38,612.89,1681.22,616.33,1666.02,616.33z
		 M1855.35,449.64c12.49,0,23.63,3.02,33.42,9.07c9.79,5.84,17.39,13.97,22.8,24.39c5.62,10.42,8.43,22.1,8.43,35.03v94.45h-41.54
		v-86.63c0-11.47-3.02-20.64-9.06-27.52c-5.83-6.88-13.95-10.32-24.36-10.32s-18.63,3.55-25.3,10.63
		c-6.66,6.88-9.99,15.95-9.99,27.21v86.63h-41.54V453.38h39.97v16.26C1821.3,456.3,1837.02,449.63,1855.35,449.64L1855.35,449.64z"
		/>
</g>
</svg>
