<svg width="2158" height="414" viewBox="0 0 2158 414" fill="none" xmlns="http://www.w3.org/2000/svg">
<path d="M224.72 264.82H172.1L181.84 211.66H234.47L224.72 264.82Z" fill="#8366F7"/>
<path d="M239.41 185.3H186.78L220.77 0.870117H273.4L239.41 185.3Z" fill="#8366F7"/>
<path d="M91.2 101.631C104.74 101.631 117.64 105.181 129.93 112.261C142.22 119.341 152.11 129.251 159.6 141.971C167.09 154.691 170.85 169.081 170.85 185.131C170.85 201.181 167.1 215.26 159.6 227.98C152.11 240.701 142.21 250.601 129.93 257.691C117.65 264.781 104.74 268.321 91.2 268.321C80.37 268.321 70.9 266.861 62.78 263.941C54.87 260.821 47.79 256.12 41.54 249.861V327.111H0V105.381H39.98V121.641C46.44 114.761 53.83 109.761 62.16 106.631C70.49 103.301 80.17 101.631 91.2 101.631ZM84.64 229.861C97.34 229.861 107.96 225.59 116.5 217.04C125.04 208.49 129.3 197.861 129.3 185.141C129.3 172.421 125.03 161.471 116.5 152.931C107.96 144.381 97.34 140.111 84.64 140.111C71.94 140.111 61.32 144.381 52.78 152.931C44.24 161.481 39.98 172.221 39.98 185.141C39.98 198.071 44.25 208.49 52.78 217.04C61.32 225.58 71.94 229.861 84.64 229.861ZM384.48 105.381H424.45V264.571H384.48V248.311C378.02 255.191 370.63 260.301 362.3 263.631C353.97 266.761 344.29 268.321 333.26 268.321C319.72 268.321 306.82 264.771 294.53 257.691C282.24 250.601 272.35 240.701 264.86 227.98C257.37 215.26 253.61 200.981 253.61 185.131C253.61 169.281 257.36 154.691 264.86 141.971C272.35 129.251 282.25 119.351 294.53 112.261C306.81 105.171 319.72 101.631 333.26 101.631C344.3 101.631 353.98 103.301 362.3 106.641C370.63 109.761 378.02 114.771 384.48 121.651V105.381ZM339.82 229.861C352.52 229.861 363.14 225.59 371.68 217.04C380.22 208.49 384.49 197.861 384.49 185.141C384.49 172.421 380.22 161.471 371.68 152.931C363.14 144.381 352.52 140.111 339.82 140.111C327.12 140.111 316.5 144.381 307.96 152.931C299.42 161.481 295.16 172.221 295.16 185.141C295.16 198.071 299.43 208.49 307.96 217.04C316.49 225.58 327.11 229.861 339.82 229.861ZM519.55 202.961L562.03 105.381H606.39L507.38 327.121H464.27L498.63 250.181L430.23 105.381H475.52L519.55 202.961ZM744.93 229.861C757.63 229.861 768.26 225.59 776.79 217.04C785.33 208.49 789.6 197.861 789.6 185.141C789.6 172.421 785.33 161.471 776.79 152.931C768.25 144.381 757.63 140.111 744.93 140.111C732.23 140.111 721.61 144.381 713.07 152.931C704.53 161.481 700.27 172.221 700.27 185.141C700.27 198.071 704.54 208.49 713.07 217.04C721.61 225.58 732.23 229.861 744.93 229.861ZM1140.66 135.401C1130.25 135.401 1121.5 138.321 1114.42 144.161C1107.55 149.791 1102.87 157.821 1100.37 168.241H1181.26C1179.18 158.441 1174.7 150.521 1167.83 144.471C1161.16 138.431 1152.11 135.401 1140.66 135.401ZM1666.01 229.861C1678.71 229.861 1689.33 225.59 1697.87 217.04C1706.41 208.49 1710.68 197.861 1710.68 185.141C1710.68 172.421 1706.41 161.471 1697.87 152.931C1689.33 144.381 1678.71 140.111 1666.01 140.111C1653.31 140.111 1642.69 144.381 1634.15 152.931C1625.61 161.481 1621.35 172.221 1621.35 185.141C1621.35 198.071 1625.62 208.49 1634.15 217.04C1642.69 225.58 1653.31 229.861 1666.01 229.861ZM789.59 105.381H829.57V264.571H789.59V248.311C783.13 255.191 775.74 260.301 767.41 263.631C759.08 266.761 749.4 268.321 738.37 268.321C724.83 268.321 711.93 264.771 699.64 257.691C687.35 250.601 677.46 240.701 669.97 227.98C662.48 215.26 658.73 200.981 658.73 185.131C658.73 169.281 662.48 154.691 669.97 141.971C677.46 129.251 687.36 119.351 699.64 112.261C711.93 105.171 724.83 101.631 738.37 101.631C749.41 101.631 759.09 103.301 767.41 106.641C775.74 109.761 783.13 114.771 789.59 121.651V105.381ZM1052.72 143.851H1014.61V201.391C1014.61 209.101 1016.79 215.151 1021.17 219.531C1025.54 223.911 1031.58 226.1 1039.29 226.1H1052.72V264.571H1028.67C1011.39 264.571 997.75 259.671 987.75 249.871C977.96 239.861 973.07 226.311 973.07 209.211V143.851H909.04V201.391C909.04 209.101 911.23 215.151 915.6 219.531C919.97 223.911 926.01 226.1 933.72 226.1H947.15V264.571H923.1C905.82 264.571 892.18 259.671 882.18 249.871C872.39 239.861 867.5 226.311 867.5 209.211V143.851H841.57V105.381H867.5V63.1605H909.04V105.381H973.07V63.1605H1014.61V105.381H1052.72V143.851ZM1140.66 101.631C1155.24 101.631 1168.87 105.181 1181.58 112.261C1194.49 119.351 1204.69 129.041 1212.19 141.341C1219.9 153.641 1223.75 167.401 1223.75 182.621C1223.75 188.251 1223.12 194.191 1221.87 200.451H1100.06C1102.35 211.291 1107.03 219.741 1114.12 225.781C1121.2 231.621 1130.15 234.54 1140.98 234.54C1149.31 234.54 1156.28 233.08 1161.9 230.16C1167.73 227.04 1172.52 222.451 1176.27 216.401H1218.12C1212.08 231.621 1202.4 244.131 1189.08 253.931C1175.76 263.521 1159.62 268.321 1140.67 268.321C1126.09 268.321 1112.35 264.881 1099.44 258.001C1086.53 250.911 1076.22 241.11 1068.51 228.6C1060.81 215.88 1056.96 201.391 1056.96 185.131C1056.96 168.861 1060.81 154.381 1068.51 141.661C1076.22 128.941 1086.42 119.141 1099.12 112.261C1112.03 105.171 1125.88 101.631 1140.66 101.631ZM1326.69 101.631C1339.18 101.631 1350.32 104.651 1360.11 110.701C1369.9 116.541 1377.5 124.671 1382.91 135.091C1388.53 145.511 1391.34 157.191 1391.34 170.121V264.571H1349.8V177.941C1349.8 166.471 1346.78 157.301 1340.74 150.421C1334.91 143.541 1326.79 140.101 1316.38 140.101C1305.97 140.101 1297.74 143.651 1291.08 150.731C1284.42 157.611 1281.09 166.681 1281.09 177.941V264.571H1239.55V105.381H1279.53V121.641C1292.66 108.301 1308.38 101.631 1326.69 101.631ZM1504.23 143.851H1466.12V201.391C1466.12 209.101 1468.3 215.151 1472.68 219.531C1477.05 223.911 1483.09 226.1 1490.79 226.1H1504.22V264.571H1480.17C1462.89 264.571 1449.25 259.671 1439.25 249.871C1429.46 239.861 1424.57 226.311 1424.57 209.211V143.851H1398.65V105.381H1424.57V63.1605H1466.11V105.381H1504.22V143.851H1504.23ZM1564.02 264.571H1522.48V105.381H1564.02V264.571ZM1564.96 78.8005H1520.92V41.2705H1564.96V78.8005ZM1666.02 268.331C1650.82 268.331 1636.56 264.891 1623.23 258.011C1610.11 250.921 1599.6 241.12 1591.69 228.611C1583.77 215.891 1579.82 201.401 1579.82 185.141C1579.82 168.871 1583.77 154.391 1591.69 141.671C1599.6 128.951 1610.11 119.151 1623.23 112.271C1636.56 105.181 1650.82 101.641 1666.02 101.641C1681.22 101.641 1695.38 105.191 1708.5 112.271C1721.83 119.151 1732.45 128.951 1740.36 141.671C1748.27 154.391 1752.23 168.881 1752.23 185.141C1752.23 201.411 1748.27 215.891 1740.36 228.611C1732.44 241.12 1721.82 250.921 1708.5 258.011C1695.38 264.891 1681.22 268.331 1666.02 268.331ZM1855.35 101.641C1867.84 101.641 1878.98 104.661 1888.77 110.711C1898.56 116.551 1906.16 124.681 1911.57 135.101C1917.19 145.521 1920 157.201 1920 170.131V264.581H1878.46V177.951C1878.46 166.481 1875.44 157.311 1869.4 150.431C1863.57 143.551 1855.45 140.111 1845.04 140.111C1834.63 140.111 1826.41 143.661 1819.74 150.741C1813.08 157.621 1809.75 166.691 1809.75 177.951V264.581H1768.21V105.381H1808.18V121.641C1821.3 108.301 1837.02 101.631 1855.35 101.641Z" fill="white"/>
<path fill-rule="evenodd" clip-rule="evenodd" d="M2032.19 293.026C2025.09 297.354 2024.24 307.014 2030.45 312.75C2033.51 315.578 2034.67 316 2039.35 316C2045.35 316 2048.96 313.914 2051.52 308.961C2053.53 305.065 2053.37 301.123 2051.04 297.299C2047.26 291.098 2038.58 289.13 2032.19 293.026ZM1816 319.077V340.154L1812.92 337.07C1808.43 332.583 1802.34 329.304 1794.97 327.406C1789.53 326.002 1787.35 325.915 1781.24 326.857C1760.47 330.06 1747 347.254 1747 370.556C1747 385.774 1750.77 396.539 1759.08 405.081C1766.98 413.2 1769.52 414 1787.32 414C1802.2 414 1802.85 413.912 1806.61 411.424C1808.75 410.007 1811.72 407.419 1813.22 405.674L1815.95 402.5L1815.97 408.25L1816 414H1827H1838V356V298H1827H1816V319.077ZM1670.65 327.049C1649.3 330.631 1635.25 353.751 1638.87 379.332C1640.82 393.178 1647.69 404.636 1657.95 411.168C1662.35 413.976 1662.53 414 1678.47 414C1696.28 414 1695.95 414.097 1703.75 406.644L1708 402.584V408.292V414H1719H1730V371V328H1719H1708V334.085V340.17L1703.41 336.132C1697.77 331.169 1692.1 328.346 1685.08 327.015C1679.1 325.88 1677.59 325.884 1670.65 327.049ZM1896.32 328.583C1894.03 329.427 1890.13 331.891 1887.67 334.059C1885.21 336.226 1882.92 338 1882.6 338C1882.27 338 1882 335.75 1882 333V328H1871.5H1861V371V414H1871.41H1881.83L1882.16 387.25C1882.49 361.043 1882.55 360.399 1885 355.5C1890.51 344.487 1906.85 341.664 1916.43 350.072C1922.36 355.276 1923 359.01 1923 388.178V414H1934H1945V386.657C1945 359.99 1945.06 359.206 1947.32 354.907C1952.84 344.414 1969.14 341.92 1978.5 350.136C1984.27 355.196 1985 359.553 1985 388.682V414H1995.55H2006.1L2005.8 382.75L2005.5 351.5L2002.89 345.933C1999.8 339.338 1994.39 333.794 1987.5 330.146C1982.93 327.728 1981.51 327.5 1971 327.5C1960.12 327.5 1959.21 327.661 1954.15 330.462C1951.21 332.092 1946.78 335.674 1944.31 338.423C1940.49 342.672 1939.68 343.173 1938.89 341.764C1936.56 337.6 1932.61 334.069 1926.8 330.951C1921 327.839 1919.7 327.548 1910.5 327.309C1903.43 327.125 1899.27 327.499 1896.32 328.583ZM2108.7 328.915C2106.05 329.978 2101.89 332.487 2099.45 334.491L2095 338.134V333.067V328H2084H2073V371V414H2084H2095V386.968C2095 358.638 2095.4 355.584 2099.79 350.645C2104.85 344.944 2117.18 343.287 2125.04 347.25C2128.53 349.012 2130.1 350.678 2132.25 354.929L2135 360.359V387.179V414H2146.09H2157.18L2156.79 383.75C2156.42 355.295 2156.27 353.165 2154.17 347.853C2151.31 340.637 2145.65 334.224 2138.85 330.498C2134.1 327.893 2132.38 327.53 2123.5 327.273C2115.46 327.039 2112.56 327.361 2108.7 328.915ZM2029 371V414H2039.5H2050V371V328H2039.5H2029V371ZM1694.14 347.528C1705.48 353.248 1710.76 367.506 1706.63 381.239C1702.83 393.851 1690.04 400.64 1676.93 396.998C1669.02 394.8 1662.25 385.866 1660.54 375.355C1659.05 366.228 1663.3 354.8 1670.06 349.792C1676.69 344.879 1686.97 343.912 1694.14 347.528ZM1803.64 348.069C1811.73 351.984 1815.88 359.846 1815.96 371.384C1816.02 381.007 1814.37 385.682 1809.02 391.051C1803.74 396.355 1797.65 398.509 1790.01 397.775C1777.96 396.617 1769 385.669 1769 372.091C1769 363.215 1771.16 357.243 1776.22 352.135C1783.36 344.923 1793.91 343.358 1803.64 348.069Z" fill="#1C0437"/>
</svg>
