<svg width="40" height="56" viewBox="0 0 40 56" fill="none" xmlns="http://www.w3.org/2000/svg">
<path d="M13.4688 44.5C12.3344 44.5 11.3634 44.096 10.5558 43.2879C9.74777 42.4804 9.34375 41.5094 9.34375 40.375V35.7687C6.62262 33.9345 4.50994 31.583 3.00569 28.7143C1.5019 25.8456 0.75 22.7888 0.75 19.5438C0.75 14.2385 2.62917 9.7384 6.3875 6.04331C10.1458 2.34777 14.6948 0.5 20.0344 0.5C25.374 0.5 29.9115 2.36771 33.6469 6.10313C37.3823 9.83854 39.25 14.3875 39.25 19.75C39.25 23.0042 38.4938 26.0406 36.9813 28.8594C35.4688 31.6781 33.3604 33.9813 30.6562 35.7687V40.375C30.6562 41.5094 30.2525 42.4804 29.4449 43.2879C28.6368 44.096 27.6656 44.5 26.5312 44.5H13.4688ZM13.8125 40.375H26.1875V33.9125L28.6625 32.1938C30.7163 30.7752 32.3069 28.9641 33.4344 26.7604C34.5615 24.5568 35.125 22.214 35.125 19.7321C35.125 15.5274 33.6583 11.9583 30.725 9.025C27.7917 6.09167 24.2167 4.625 20 4.625C15.7833 4.625 12.2083 6.10564 9.275 9.06694C6.34167 12.0282 4.875 15.6094 4.875 19.8105C4.875 22.291 5.43852 24.6235 6.56556 26.8079C7.69306 28.9923 9.28371 30.7876 11.3375 32.1938L13.8125 33.8864V40.375ZM14.2938 55.5C13.7094 55.5 13.2196 55.3022 12.8246 54.9067C12.429 54.5116 12.2313 54.0219 12.2313 53.4375V51.375H27.8375V53.4499C27.8375 54.0375 27.64 54.526 27.2449 54.9156C26.8493 55.3052 26.3594 55.5 25.775 55.5H14.2938Z" fill="#15032A"/>
</svg>
