<svg width="24" height="25" viewBox="0 0 24 25" fill="none" xmlns="http://www.w3.org/2000/svg">
<mask id="mask0_1495_375" style="mask-type:alpha" maskUnits="userSpaceOnUse" x="0" y="0" width="24" height="25">
<rect y="0.5" width="24" height="24" fill="#D9D9D9"/>
</mask>
<g mask="url(#mask0_1495_375)">
<path d="M9.575 15.75L16.25 11.5L9.575 7.25V15.75ZM8.25 21.5V19.5H3.5C3.1 19.5 2.75 19.35 2.45 19.05C2.15 18.75 2 18.4 2 18V5C2 4.6 2.15 4.25 2.45 3.95C2.75 3.65 3.1 3.5 3.5 3.5H20.5C20.9 3.5 21.25 3.65 21.55 3.95C21.85 4.25 22 4.6 22 5V18C22 18.4 21.85 18.75 21.55 19.05C21.25 19.35 20.9 19.5 20.5 19.5H15.75V21.5H8.25ZM3.5 18H20.5V5H3.5V18Z" fill="#15032A"/>
</g>
</svg>
