<svg width="24" height="25" viewBox="0 0 24 25" fill="none" xmlns="http://www.w3.org/2000/svg">
<mask id="mask0_1495_995" style="mask-type:alpha" maskUnits="userSpaceOnUse" x="0" y="0" width="24" height="25">
<rect y="0.5" width="24" height="24" fill="#D9D9D9"/>
</mask>
<g mask="url(#mask0_1495_995)">
<path d="M12 23C10.7 21.85 9.27917 20.9667 7.7375 20.35C6.19583 19.7333 4.61667 19.425 3 19.425V8.7C4.56667 8.7 6.12083 9.05833 7.6625 9.775C9.20417 10.4917 10.65 11.4917 12 12.775C13.35 11.4917 14.7958 10.4917 16.3375 9.775C17.8792 9.05833 19.4333 8.7 21 8.7V19.425C19.3833 19.425 17.8042 19.7333 16.2625 20.35C14.7208 20.9667 13.3 21.85 12 23ZM12 21.075C13.1833 20.225 14.4042 19.5458 15.6625 19.0375C16.9208 18.5292 18.2 18.2083 19.5 18.075V10.325C18.3667 10.5083 17.1708 10.9625 15.9125 11.6875C14.6542 12.4125 13.35 13.4167 12 14.7C10.5333 13.35 9.2 12.325 8 11.625C6.8 10.925 5.63333 10.4917 4.5 10.325V18.075C5.8 18.2083 7.07917 18.5292 8.3375 19.0375C9.59583 19.5458 10.8167 20.225 12 21.075ZM12.075 9.2C10.9917 9.2 10.0792 8.82917 9.3375 8.0875C8.59583 7.34583 8.225 6.43333 8.225 5.35C8.225 4.26667 8.59583 3.35417 9.3375 2.6125C10.0792 1.87083 10.9917 1.5 12.075 1.5C13.1583 1.5 14.0708 1.87083 14.8125 2.6125C15.5542 3.35417 15.925 4.26667 15.925 5.35C15.925 6.43333 15.5542 7.34583 14.8125 8.0875C14.0708 8.82917 13.1583 9.2 12.075 9.2ZM12.079 7.7C12.7263 7.7 13.2792 7.4695 13.7375 7.0085C14.1958 6.5475 14.425 5.99333 14.425 5.346C14.425 4.69867 14.1945 4.14583 13.7335 3.6875C13.2725 3.22917 12.7183 3 12.071 3C11.4237 3 10.8708 3.2305 10.4125 3.6915C9.95417 4.1525 9.725 4.70667 9.725 5.354C9.725 6.00133 9.9555 6.55417 10.4165 7.0125C10.8775 7.47083 11.4317 7.7 12.079 7.7Z" fill="#15032A"/>
</g>
</svg>
