<svg width="53" height="56" viewBox="0 0 53 56" fill="none" xmlns="http://www.w3.org/2000/svg">
<path d="M22.9375 32.8125H27.0625V14.9375H22.9375V32.8125ZM31.1875 28.6875H35.3125V17.6875H31.1875V28.6875ZM14.6875 27.3125H18.8125V17.6875H14.6875V27.3125ZM8.5 55.5V43.675C5.8875 41.2917 3.85938 38.5073 2.41563 35.3219C0.971875 32.1365 0.25 28.7792 0.25 25.25C0.25 18.375 2.65625 12.5312 7.46875 7.71875C12.2813 2.90625 18.125 0.5 25 0.5C30.7292 0.5 35.8052 2.18437 40.2281 5.55312C44.651 8.92188 47.5271 13.3104 48.8563 18.7188L52.6375 33.7062C52.8208 34.3479 52.7063 34.9323 52.2938 35.4594C51.8813 35.9865 51.3313 36.25 50.6438 36.25H44.25V45.875C44.25 47.0094 43.8462 47.9804 43.0386 48.7879C42.2306 49.596 41.2594 50 40.125 50H33.25V55.5H29.125V45.875H40.125V32.125H47.9625L44.8688 19.75C43.7688 15.3042 41.3625 11.6719 37.65 8.85313C33.9375 6.03438 29.7208 4.625 25 4.625C19.2708 4.625 14.401 6.60729 10.3906 10.5719C6.38021 14.5365 4.375 19.3728 4.375 25.0809C4.375 28.0335 4.97817 30.8382 6.1845 33.4952C7.39129 36.1526 9.10271 38.5146 11.3188 40.5812L12.625 41.8188V55.5H8.5Z" fill="#15032A"/>
</svg>
