<svg width="51" height="44" viewBox="0 0 51 44" fill="none" xmlns="http://www.w3.org/2000/svg">
<path d="M13.4187 44C13.052 44 12.7082 43.9083 12.3874 43.725C12.0666 43.5417 11.8145 43.2896 11.6312 42.9688L5.85615 32.6562H10.7374L13.6249 38.1562H19.8124V36.0938H14.8624L11.9749 30.5938H4.75615L0.424902 23.0312C0.333236 22.8479 0.264486 22.676 0.218652 22.5156C0.172819 22.3552 0.149902 22.1833 0.149902 22C0.149902 21.9083 0.241569 21.5646 0.424902 20.9688L4.75615 13.4062H11.9749L14.8624 7.90625H19.8124V5.84375H13.6249L10.7374 11.3438H5.85615L11.6312 1.03125C11.8145 0.710417 12.0666 0.458333 12.3874 0.275C12.7082 0.0916667 13.052 0 13.4187 0H21.5312C22.127 0 22.6197 0.194792 23.0093 0.584375C23.3989 0.973958 23.5937 1.46667 23.5937 2.0625V14.0938H17.7499L15.6874 16.1562H23.5937V25.0938H16.8562L14.1749 19.5938H7.4374L5.3749 21.6562H12.7999L15.5499 27.1562H23.5937V41.9375C23.5937 42.5333 23.3989 43.026 23.0093 43.4156C22.6197 43.8052 22.127 44 21.5312 44H13.4187ZM32.1874 44C30.8582 44 29.7239 43.5302 28.7843 42.5906C27.8447 41.651 27.3749 40.5167 27.3749 39.1875C27.3749 38.225 27.627 37.3542 28.1312 36.575C28.6353 35.7958 29.2999 35.2229 30.1249 34.8563V9.14375C29.2999 8.77708 28.6353 8.20417 28.1312 7.425C27.627 6.64583 27.3749 5.775 27.3749 4.8125C27.3749 3.48333 27.8447 2.34896 28.7843 1.40937C29.7239 0.469792 30.8582 0 32.1874 0C33.5166 0 34.6509 0.469792 35.5905 1.40937C36.5301 2.34896 36.9999 3.48333 36.9999 4.8125C36.9999 5.775 36.7478 6.64583 36.2437 7.425C35.7395 8.20417 35.0749 8.77708 34.2499 9.14375V16.9813L41.1249 12.8563C40.9874 11.4354 41.3999 10.1979 42.3624 9.14375C43.3249 8.08958 44.5166 7.5625 45.9374 7.5625C47.2666 7.5625 48.4009 8.03229 49.3405 8.97188C50.2801 9.91146 50.7499 11.0458 50.7499 12.375C50.7499 13.7042 50.2801 14.8385 49.3405 15.7781C48.4009 16.7177 47.2666 17.1875 45.9374 17.1875C45.4332 17.1875 44.952 17.1187 44.4937 16.9813C44.0353 16.8438 43.6228 16.6604 43.2562 16.4312L35.8312 20.9L43.8062 27.2938C44.127 27.1562 44.4707 27.0417 44.8374 26.95C45.2041 26.8583 45.5707 26.8125 45.9374 26.8125C47.2666 26.8125 48.4009 27.2823 49.3405 28.2219C50.2801 29.1615 50.7499 30.2958 50.7499 31.625C50.7499 32.9542 50.2801 34.0885 49.3405 35.0281C48.4009 35.9677 47.2666 36.4375 45.9374 36.4375C44.3332 36.4375 43.0614 35.8187 42.1218 34.5812C41.1822 33.3438 40.8957 31.9917 41.2624 30.525L34.2499 24.8875V34.925C35.0291 35.2917 35.6707 35.8531 36.1749 36.6094C36.6791 37.3656 36.9312 38.225 36.9312 39.1875C36.9312 40.5167 36.4728 41.651 35.5562 42.5906C34.6395 43.5302 33.5166 44 32.1874 44Z" fill="#15032A"/>
</svg>
