<svg width="24" height="25" viewBox="0 0 24 25" fill="none" xmlns="http://www.w3.org/2000/svg">
<mask id="mask0_1500_1595" style="mask-type:alpha" maskUnits="userSpaceOnUse" x="0" y="0" width="24" height="25">
<rect y="0.5" width="24" height="24" fill="#D9D9D9"/>
</mask>
<g mask="url(#mask0_1500_1595)">
<path d="M7.675 16.35L5.5 7.425L12 1.5L18.5 7.425L16.325 16.35H7.675ZM8.85 14.85H15.15L16.85 7.925L12.75 4.225V7.8C12.9833 7.93333 13.175 8.11667 13.325 8.35C13.475 8.58333 13.55 8.84167 13.55 9.125C13.55 9.54167 13.4 9.9 13.1 10.2C12.8 10.5 12.4333 10.65 12 10.65C11.5667 10.65 11.2 10.5 10.9 10.2C10.6 9.9 10.45 9.54167 10.45 9.125C10.45 8.84167 10.525 8.58333 10.675 8.35C10.825 8.11667 11.0167 7.93333 11.25 7.8V4.225L7.15 7.925L8.85 14.85ZM4 21.5L4.525 20.075C4.65833 19.7083 4.88333 19.4125 5.2 19.1875C5.51667 18.9625 5.86667 18.85 6.25 18.85H17.75C18.1333 18.85 18.4833 18.9625 18.8 19.1875C19.1167 19.4125 19.3417 19.7083 19.475 20.075L20 21.5H4Z" fill="#15032A"/>
</g>
</svg>
