<?xml version="1.0" encoding="utf-8"?>
<!-- Generator: Adobe Illustrator 27.8.0, SVG Export Plug-In . SVG Version: 6.00 Build 0)  -->
<svg version="1.1" id="Layer_1" xmlns="http://www.w3.org/2000/svg" xmlns:xlink="http://www.w3.org/1999/xlink" x="0px" y="0px"
	 viewBox="0 0 1920 1024" style="enable-background:new 0 0 1920 1024;" xml:space="preserve">
<style type="text/css">
	.st0{fill:#6A48F5;}
	.st1{fill:#1C2040;}
</style>
<g>
	<path class="st0" d="M713.71,828.45H548.53l30.56-166.85h165.18L713.71,828.45z"/>
	<path class="st0" d="M759.81,578.86H594.63L701.3,0h165.18L759.81,578.86z"/>
	<path class="st1" d="M294.63,316.24c42.48,0,83,11.13,121.56,33.38c38.55,22.25,69.61,53.34,93.13,93.25
		c23.52,39.93,35.3,85.08,35.3,135.46c0,50.38-11.76,94.56-35.3,134.49c-23.52,39.91-54.58,71.01-93.13,93.25
		c-38.55,22.25-79.07,33.38-121.56,33.38c-33.98,0-63.73-4.58-89.21-13.74c-24.84-9.81-47.06-24.55-66.67-44.18v242.46H8.37V328.02
		h125.49v51.04c20.27-21.6,43.46-37.3,69.61-47.12c26.15-10.47,56.53-15.71,91.16-15.71V316.24z M274.05,718.71
		c39.87,0,73.19-13.41,100-40.24c26.79-26.83,40.19-60.2,40.19-100.13c0-39.93-13.4-74.28-40.19-101.11
		c-26.79-26.83-60.13-40.24-100-40.24c-39.87,0-73.19,13.41-100,40.24c-26.79,26.83-40.19,60.54-40.19,101.11
		c0,40.57,13.4,73.29,40.19,100.13C200.84,705.29,234.17,718.71,274.05,718.71z M1215.15,328.02h125.47v499.65h-125.47v-51.04
		c-20.27,21.6-43.46,37.63-69.61,48.1c-26.15,9.82-56.52,14.72-91.16,14.72c-42.48,0-82.99-11.13-121.55-33.38
		c-38.57-22.25-69.61-53.34-93.13-93.25c-23.52-39.93-35.3-84.75-35.3-134.48c0-49.74,11.76-95.55,35.3-135.46
		c23.52-39.93,54.58-71.01,93.13-93.25c38.56-22.25,79.07-33.38,121.55-33.38c34.65,0,65.04,5.24,91.16,15.71
		c26.15,9.81,49.34,25.52,69.61,47.12v-51.04V328.02z M1074.95,718.71c39.86,0,73.21-13.41,100-40.24
		c26.79-26.83,40.2-60.2,40.2-100.13c0-39.93-13.41-74.28-40.2-101.11c-26.8-26.83-60.13-40.24-100-40.24
		c-39.87,0-73.21,13.41-100,40.24c-26.79,26.83-40.19,60.54-40.19,101.11c0,40.57,13.4,73.29,40.19,100.13
		C1001.75,705.29,1035.09,718.71,1074.95,718.71z M1639.08,634.29l133.33-306.27h139.22L1600.86,1024h-135.3l107.85-241.48
		l-214.7-454.5h142.14l138.21,306.27H1639.08z"/>
</g>
</svg>
