<svg id="fb8100bd-e822-4168-80ee-200ce4d74d2c" data-name="Layer 1" xmlns="http://www.w3.org/2000/svg" viewBox="0 0 1868.08 1014.57">
  <defs>
    <style>
      .be83fa94-f999-4aac-8cc3-9b8778bd4299 {
        fill: #6a48f5;
      }

      .b7a96255-83c8-48e6-8e7a-2bebf540c151 {
        fill: #1c2040;
      }

      .efd2a5e5-6a59-4666-9bb0-eaaaae7e20b7 {
        fill: #15032a;
      }
    </style>
  </defs>
  <title>logo-dipper</title>
  <g>
    <path class="be83fa94-f999-4aac-8cc3-9b8778bd4299" d="M612.62,709.71H471.11l26.18-142.93H638.8Z" transform="translate(-8.37)"/>
    <path class="be83fa94-f999-4aac-8cc3-9b8778bd4299" d="M652.11,495.89H510.6L602,0H743.49Z" transform="translate(-8.37)"/>
    <path class="b7a96255-83c8-48e6-8e7a-2bebf540c151" d="M253.6,270.91q54.59,0,104.14,28.6t79.78,79.88q30.23,51.32,30.24,116.05c0,43.16-10.07,81-30.24,115.21s-46.76,60.84-79.78,79.89S290,719.13,253.6,719.13q-43.66,0-76.42-11.77a166.74,166.74,0,0,1-57.12-37.84V877.23H8.37V281h107.5v43.72q26.06-27.75,59.64-40.37,33.6-13.46,78.09-13.45ZM236,615.7q51.24,0,85.67-34.47t34.43-85.78c0-34.21-11.48-63.64-34.43-86.62S270.13,374.36,236,374.36s-62.7,11.49-85.67,34.47-34.43,51.86-34.43,86.62,11.48,62.78,34.43,85.78S201.81,615.7,236,615.7ZM1042.19,281h107.48V709H1042.19V665.32q-26.06,27.75-59.64,41.2-33.6,12.63-78.09,12.61-54.59,0-104.13-28.59t-79.78-79.89q-30.22-51.3-30.24-115.2c0-42.61,10.07-81.86,30.24-116s46.76-60.83,79.78-79.88,67.74-28.6,104.13-28.6q44.52,0,78.09,13.46,33.62,12.62,59.64,40.37V281ZM922.08,615.7q51.23,0,85.67-34.47t34.44-85.78c0-34.21-11.49-63.64-34.44-86.62s-51.51-34.47-85.67-34.47-62.72,11.49-85.67,34.47S802,460.69,802,495.45s11.48,62.78,34.43,85.78S887.93,615.7,922.08,615.7Zm483.28-72.32L1519.58,281h119.26L1372.61,877.23h-115.9l92.39-206.87L1165.17,281h121.77l118.4,262.37Z" transform="translate(-8.37)"/>
  </g>
  <path class="efd2a5e5-6a59-4666-9bb0-eaaaae7e20b7" d="M48.16,979.29H23.88V964H48.16a20,20,0,0,0,9.17-1.83,11.76,11.76,0,0,0,5.16-5.24,16.73,16.73,0,0,0,1.64-7.53,19.11,19.11,0,0,0-1.64-7.92,13.28,13.28,0,0,0-5.16-5.89,17,17,0,0,0-9.17-2.22H30.69v79.92H11.05V918H48.16q11.19,0,19.17,4.06a28.85,28.85,0,0,1,12.31,11.06,30.68,30.68,0,0,1,4.25,16.16,29.23,29.23,0,0,1-4.25,16,27.54,27.54,0,0,1-12.31,10.41Q59.37,979.28,48.16,979.29ZM97.44,918H133a48.73,48.73,0,0,1,18.78,3.27,26.08,26.08,0,0,1,12.17,9.69q4.26,6.41,4.26,15.77a30.32,30.32,0,0,1-2.62,13.16,24.62,24.62,0,0,1-7.27,9.1,37.43,37.43,0,0,1-10.93,5.75L141.17,978H110.28l-.14-15.32h23a18,18,0,0,0,8.58-1.83,12,12,0,0,0,5.11-5.11,15.7,15.7,0,0,0,1.77-7.59,17.32,17.32,0,0,0-1.71-7.92,11.4,11.4,0,0,0-5.17-5.1,19,19,0,0,0-8.7-1.77H117.08v79.92H97.44Zm53.28,95.3L129,970.78l20.76-.13,22,41.69v.92ZM261.6,963.38v4.52a60.06,60.06,0,0,1-3,19.5,42.67,42.67,0,0,1-8.31,14.73,36.18,36.18,0,0,1-12.83,9.23,43.63,43.63,0,0,1-32.85,0,36.81,36.81,0,0,1-12.83-9.23,43.25,43.25,0,0,1-8.45-14.73,60.34,60.34,0,0,1-2.94-19.5v-4.52a59.91,59.91,0,0,1,2.94-19.5,43.17,43.17,0,0,1,8.32-14.73,36.51,36.51,0,0,1,12.82-9.3,43.8,43.8,0,0,1,32.87,0,35.63,35.63,0,0,1,12.82,9.3,42.32,42.32,0,0,1,8.38,14.73A58.8,58.8,0,0,1,261.6,963.38Zm-19.84,4.52v-4.65a58.3,58.3,0,0,0-1.36-13.35,29.45,29.45,0,0,0-4.06-9.69,17.49,17.49,0,0,0-6.55-5.89,20.24,20.24,0,0,0-17.67,0,17.5,17.5,0,0,0-6.47,5.89,29.42,29.42,0,0,0-4,9.69,57.67,57.67,0,0,0-1.38,13.35v4.65a58.16,58.16,0,0,0,1.38,13.35,29.32,29.32,0,0,0,4.06,9.75,18.09,18.09,0,0,0,6.54,6,20.24,20.24,0,0,0,17.67,0,17.46,17.46,0,0,0,6.48-6,30.82,30.82,0,0,0,4-9.75A58.79,58.79,0,0,0,241.76,967.9Zm66.91,25.46L331.11,918H353l-33.19,95.3h-14.4ZM288,918l22.39,75.4,3.41,19.9H299.23l-33-95.3Zm137.85,80v15.32H375.09V997.94Zm-44.3-80v95.3H361.87V918Zm37.69,38.81v14.92H375.09V956.77ZM425.76,918v15.38H375.09V918Zm75.46,80v15.32H450.5V997.94Zm-44.31-80v95.3H437.28V918Zm37.71,38.81v14.92H450.5V956.77ZM501.16,918v15.38H450.5V918Zm40.77,95.3H521.19l.12-15.32h20.62a23.29,23.29,0,0,0,13-3.47,21.43,21.43,0,0,0,8-10.28,43,43,0,0,0,2.76-16.29v-4.65a47.41,47.41,0,0,0-1.58-12.89A25.37,25.37,0,0,0,559.6,941a18.88,18.88,0,0,0-7.38-5.7,24.48,24.48,0,0,0-10.09-2H520.79V918h21.34a45.3,45.3,0,0,1,17.47,3.27,39.31,39.31,0,0,1,13.82,9.23,41.17,41.17,0,0,1,9,14.4,51.23,51.23,0,0,1,3.21,18.52v4.52a51.58,51.58,0,0,1-3.21,18.52,41.17,41.17,0,0,1-9,14.4,39.71,39.71,0,0,1-13.82,9.23A46.91,46.91,0,0,1,541.93,1013.26ZM532.32,918v95.3H512.67V918Zm145.82,45.42v4.52a60.34,60.34,0,0,1-2.94,19.5,43,43,0,0,1-8.31,14.73,36.18,36.18,0,0,1-12.83,9.23,43.65,43.65,0,0,1-32.86,0,36.9,36.9,0,0,1-12.83-9.23,43.23,43.23,0,0,1-8.44-14.73A60.33,60.33,0,0,1,597,967.9v-4.52a59.9,59.9,0,0,1,2.95-19.5,43,43,0,0,1,8.31-14.73,36.46,36.46,0,0,1,12.83-9.3,43.75,43.75,0,0,1,32.85,0,35.79,35.79,0,0,1,12.84,9.3,42.3,42.3,0,0,1,8.37,14.73A58.54,58.54,0,0,1,678.14,963.38Zm-19.83,4.52v-4.65a57.67,57.67,0,0,0-1.38-13.35,28.82,28.82,0,0,0-4-9.69,17.64,17.64,0,0,0-6.55-5.89,20.24,20.24,0,0,0-17.67,0,17.68,17.68,0,0,0-6.48,5.89,30.07,30.07,0,0,0-4,9.69,57.71,57.71,0,0,0-1.37,13.35v4.65a58.19,58.19,0,0,0,1.37,13.35,29.74,29.74,0,0,0,4.06,9.75,17.88,17.88,0,0,0,6.55,6,20.24,20.24,0,0,0,17.67,0,17.69,17.69,0,0,0,6.48-6,30.58,30.58,0,0,0,4-9.75A58.16,58.16,0,0,0,658.31,967.9Zm34-49.94h35.53a48.79,48.79,0,0,1,18.79,3.27,26.11,26.11,0,0,1,12.18,9.69c2.82,4.27,4.25,9.53,4.25,15.77a30.46,30.46,0,0,1-2.62,13.16,24.8,24.8,0,0,1-7.26,9.1,37.61,37.61,0,0,1-10.94,5.75L736,978h-30.9L705,962.66h23a18,18,0,0,0,8.58-1.83,12,12,0,0,0,5.1-5.11,15.7,15.7,0,0,0,1.76-7.59,17.32,17.32,0,0,0-1.69-7.92,11.45,11.45,0,0,0-5.17-5.1,19,19,0,0,0-8.71-1.77h-15.9v79.92H692.29Zm53.27,95.3-21.72-42.48,20.74-.13,22,41.69v.92Zm96.54-15.32v15.32H791.37V997.94Zm-44.31-80v95.3H778.16V918Zm37.71,38.81v14.92H791.37V956.77ZM842,918v15.38H791.37V918Zm61.13,70.36a12.68,12.68,0,0,0-.78-4.58,8.72,8.72,0,0,0-2.76-3.8,24.25,24.25,0,0,0-5.69-3.47,81,81,0,0,0-9.49-3.53,121.48,121.48,0,0,1-12.31-4.72,50.13,50.13,0,0,1-10.2-6.08A27.6,27.6,0,0,1,855,954a24.1,24.1,0,0,1,.13-21.6,24.8,24.8,0,0,1,7.32-8.38,34.74,34.74,0,0,1,11.14-5.43,50.23,50.23,0,0,1,14.2-1.9,41.79,41.79,0,0,1,18.39,3.79,29.4,29.4,0,0,1,12.17,10.41A26.69,26.69,0,0,1,922.74,946h-19.5a14.78,14.78,0,0,0-1.77-7.33,11.9,11.9,0,0,0-5.24-5,18.69,18.69,0,0,0-8.77-1.83,20.28,20.28,0,0,0-8.51,1.57,11.36,11.36,0,0,0-5.1,4.12,10.11,10.11,0,0,0-1.71,5.76,8.42,8.42,0,0,0,1.18,4.39,13.15,13.15,0,0,0,3.67,3.66,31.85,31.85,0,0,0,6,3.21,86,86,0,0,0,8.18,2.95,86.54,86.54,0,0,1,13.68,5.3,42.29,42.29,0,0,1,10,6.61,24.77,24.77,0,0,1,6,8.31,26.14,26.14,0,0,1,2,10.54,25.07,25.07,0,0,1-2.42,11.13,22.9,22.9,0,0,1-7,8.31,32.85,32.85,0,0,1-10.93,5.17,52.86,52.86,0,0,1-14.2,1.77,54,54,0,0,1-13.94-1.84,42.2,42.2,0,0,1-12.5-5.69,28.64,28.64,0,0,1-8.91-9.69,27.87,27.87,0,0,1-3.34-13.94h19.71a18.52,18.52,0,0,0,1.37,7.53,12.57,12.57,0,0,0,3.87,5,16.4,16.4,0,0,0,6,2.75,32.78,32.78,0,0,0,7.72.85,20.9,20.9,0,0,0,8.37-1.44,10.24,10.24,0,0,0,6.55-9.75Zm121.61-6.68h19.58a35.41,35.41,0,0,1-5.31,17.09,31.71,31.71,0,0,1-13,11.65q-8.32,4.18-20,4.19a40.93,40.93,0,0,1-16.42-3.15,34.9,34.9,0,0,1-12.43-9.16,40.58,40.58,0,0,1-7.8-14.4A62.55,62.55,0,0,1,966.66,969v-6.62a60.67,60.67,0,0,1,2.75-18.91,41.82,41.82,0,0,1,8-14.47,35.76,35.76,0,0,1,12.51-9.16,39.65,39.65,0,0,1,16.23-3.21q11.91,0,20.09,4.32A31.45,31.45,0,0,1,1039,932.81a40.45,40.45,0,0,1,5.51,17.28h-19.64a25.08,25.08,0,0,0-2.3-9.75,13,13,0,0,0-5.95-6.09c-2.61-1.39-6.11-2.09-10.47-2.09a19,19,0,0,0-8.58,1.83,15.91,15.91,0,0,0-6.14,5.57,27,27,0,0,0-3.74,9.42,65.64,65.64,0,0,0-1.17,13.22V969a67.9,67.9,0,0,0,1.1,13,30.34,30.34,0,0,0,3.4,9.43,15.92,15.92,0,0,0,6,5.75,19.6,19.6,0,0,0,9,1.9,23,23,0,0,0,10.15-2,13.53,13.53,0,0,0,6.09-5.83A22.84,22.84,0,0,0,1024.78,981.64Zm96.41,16.3v15.32h-50.72V997.94Zm-44.31-80v95.3h-19.63V918Zm37.7,38.81v14.92h-44.11V956.77Zm6.55-38.81v15.38h-50.66V918Zm11.51,0h35.55a48.7,48.7,0,0,1,18.78,3.27,25.93,25.93,0,0,1,12.17,9.69q4.26,6.41,4.27,15.77a30.46,30.46,0,0,1-2.62,13.16,24.75,24.75,0,0,1-7.28,9.1,37.62,37.62,0,0,1-10.92,5.75l-6.22,3.28h-30.89l-.14-15.32h23a18,18,0,0,0,8.57-1.83,12.05,12.05,0,0,0,5.11-5.11,15.7,15.7,0,0,0,1.76-7.59,17.32,17.32,0,0,0-1.69-7.92,11.47,11.47,0,0,0-5.18-5.1,19,19,0,0,0-8.7-1.77h-15.9v79.92h-19.65Zm53.28,95.3-21.73-42.48,20.76-.13,22,41.69v.92Zm71.29-95.3v95.3h-19.57V918Zm29.32,0v15.38h-77.76V918Zm32.07,0v95.3H1299V918Zm38,0v95.3H1337V918Zm37.95,40.71V974h-43.32V958.67Zm4.59-40.71v15.38h-47.91V918Zm32.27,0v95.3h-19.58V918Zm73.64,63.68h19.57a35.51,35.51,0,0,1-5.3,17.09,31.74,31.74,0,0,1-13,11.65q-8.33,4.18-20,4.19a40.94,40.94,0,0,1-16.43-3.15,34.9,34.9,0,0,1-12.43-9.16,40.56,40.56,0,0,1-7.79-14.4A62.23,62.23,0,0,1,1447,969v-6.62a61,61,0,0,1,2.75-18.91,42,42,0,0,1,8-14.47,35.76,35.76,0,0,1,12.51-9.16,39.78,39.78,0,0,1,16.23-3.21q11.92,0,20.09,4.32a31.45,31.45,0,0,1,12.76,11.91,40.45,40.45,0,0,1,5.51,17.28h-19.64a25.26,25.26,0,0,0-2.29-9.75,13.06,13.06,0,0,0-5.95-6.09q-3.93-2.09-10.48-2.09a19,19,0,0,0-8.57,1.83,15.94,15.94,0,0,0-6.15,5.57A27.6,27.6,0,0,0,1468,949a65.64,65.64,0,0,0-1.17,13.22V969a67,67,0,0,0,1.11,13,29.84,29.84,0,0,0,3.4,9.43,15.73,15.73,0,0,0,6,5.75,19.47,19.47,0,0,0,9,1.9,23,23,0,0,0,10.15-2,13.56,13.56,0,0,0,6.08-5.83A22.69,22.69,0,0,0,1505.08,981.64Zm71.21-47.39-25.92,79h-20.88L1564.9,918h13.28Zm21.54,79-26-79L1569.75,918h13.42l35.59,95.3Zm-1.19-35.48v15.38h-50.33V977.78Zm60.21,35.48h-20.74l.14-15.32h20.6a23.29,23.29,0,0,0,13-3.47,21.52,21.52,0,0,0,8-10.28,43.36,43.36,0,0,0,2.74-16.29v-4.65a47.83,47.83,0,0,0-1.57-12.89,25.68,25.68,0,0,0-4.51-9.36,19,19,0,0,0-7.4-5.7,24.43,24.43,0,0,0-10.08-2h-21.34V918h21.34a45.46,45.46,0,0,1,17.48,3.27,39.32,39.32,0,0,1,13.8,9.23,41,41,0,0,1,9,14.4,51,51,0,0,1,3.21,18.52v4.52a51.36,51.36,0,0,1-3.21,18.52,41,41,0,0,1-9,14.4,39.72,39.72,0,0,1-13.8,9.23A47.09,47.09,0,0,1,1656.85,1013.26Zm-9.61-95.3v95.3h-19.63V918Zm145.83,45.42v4.52a60.33,60.33,0,0,1-3,19.5,43,43,0,0,1-8.31,14.73,36.18,36.18,0,0,1-12.83,9.23,43.63,43.63,0,0,1-32.85,0,36.85,36.85,0,0,1-12.84-9.23,43.23,43.23,0,0,1-8.44-14.73,60.34,60.34,0,0,1-2.94-19.5v-4.52a59.91,59.91,0,0,1,2.94-19.5,43,43,0,0,1,8.31-14.73,36.55,36.55,0,0,1,12.83-9.3,43.78,43.78,0,0,1,32.86,0,35.58,35.58,0,0,1,12.83,9.3,42.32,42.32,0,0,1,8.38,14.73A58.8,58.8,0,0,1,1793.07,963.38Zm-19.84,4.52v-4.65a57.71,57.71,0,0,0-1.37-13.35,29,29,0,0,0-4.06-9.69,17.34,17.34,0,0,0-6.55-5.89,20.24,20.24,0,0,0-17.67,0,17.68,17.68,0,0,0-6.48,5.89,29.84,29.84,0,0,0-4,9.69,57.67,57.67,0,0,0-1.38,13.35v4.65a58.16,58.16,0,0,0,1.38,13.35,29.52,29.52,0,0,0,4.05,9.75,18.12,18.12,0,0,0,6.55,6,20.24,20.24,0,0,0,17.67,0,17.54,17.54,0,0,0,6.48-6,30.81,30.81,0,0,0,4-9.75A58.19,58.19,0,0,0,1773.23,967.9Zm83.59,20.42a12.68,12.68,0,0,0-.78-4.58,8.72,8.72,0,0,0-2.76-3.8,24.46,24.46,0,0,0-5.69-3.47,81,81,0,0,0-9.49-3.53,121.48,121.48,0,0,1-12.31-4.72,50.48,50.48,0,0,1-10.21-6.08,27.42,27.42,0,0,1-6.93-8.18,24.1,24.1,0,0,1,.13-21.6,24.8,24.8,0,0,1,7.32-8.38,34.79,34.79,0,0,1,11.13-5.43,50.25,50.25,0,0,1,14.21-1.9,41.82,41.82,0,0,1,18.39,3.79A29.46,29.46,0,0,1,1872,930.85a26.69,26.69,0,0,1,4.39,15.12h-19.5a14.78,14.78,0,0,0-1.77-7.33,12,12,0,0,0-5.24-5,18.69,18.69,0,0,0-8.77-1.83,20.28,20.28,0,0,0-8.51,1.57,11.36,11.36,0,0,0-5.1,4.12,10.11,10.11,0,0,0-1.71,5.76,8.32,8.32,0,0,0,1.18,4.39,13.15,13.15,0,0,0,3.67,3.66,32.06,32.06,0,0,0,5.95,3.21c2.36,1,5.09,2,8.19,2.95a86,86,0,0,1,13.67,5.3,42.36,42.36,0,0,1,10,6.61,24.77,24.77,0,0,1,6,8.31,26.14,26.14,0,0,1,2,10.54,25.06,25.06,0,0,1-2.41,11.13,22.9,22.9,0,0,1-7,8.31,33,33,0,0,1-10.93,5.17,52.86,52.86,0,0,1-14.2,1.77,54,54,0,0,1-14-1.84,42.26,42.26,0,0,1-12.49-5.69,28.64,28.64,0,0,1-8.91-9.69,27.87,27.87,0,0,1-3.34-13.94h19.71a18.52,18.52,0,0,0,1.37,7.53,12.57,12.57,0,0,0,3.87,5,16.43,16.43,0,0,0,6,2.75,32.87,32.87,0,0,0,7.73.85,20.9,20.9,0,0,0,8.37-1.44,10.29,10.29,0,0,0,4.91-4A10.45,10.45,0,0,0,1856.82,988.32Z" transform="translate(-8.37)"/>
</svg>
